<?xml version="1.0" encoding="UTF-8"?>
<!-- Created by Makercase v3 -->
<svg width="1533.00mm" height="503.50mm" viewBox="-5 -497 1533.00 503.50" version="1.1" xmlns="http://www.w3.org/2000/svg" xmlns:xlink="http://www.w3.org/1999/xlink"><path d="M15.500 -1.500L15.500 1.500L24.500 1.500L24.500 -1.500L33.500 -1.500L33.500 1.500L42.500 1.500L42.500 -1.500L51.500 -1.500L51.500 1.500L60.500 1.500L60.500 -1.500L69.500 -1.500L69.500 1.500L78.500 1.500L78.500 -1.500L87.500 -1.500L87.500 1.500L96.500 1.500L96.500 -1.500L105.500 -1.500L105.500 1.500L114.500 1.500L114.500 -1.500L123.500 -1.500L123.500 1.500L132.500 1.500L132.500 -1.500L141.500 -1.500L141.500 1.500L150.500 1.500L150.500 -1.500L159.500 -1.500L159.500 1.500L168.500 1.500L168.500 -1.500L177.500 -1.500L177.500 1.500L186.500 1.500L186.500 -1.500L195.500 -1.500L195.500 1.500L204.500 1.500L204.500 -1.500L213.500 -1.500L213.500 1.500L222.500 1.500L222.500 -1.500L231.500 -1.500L231.500 1.500L240.500 1.500L240.500 -1.500L249.500 -1.500L249.500 1.500L258.500 1.500L258.500 -1.500L267.500 -1.500L267.500 1.500L276.500 1.500L276.500 -1.500L285.500 -1.500L285.500 1.500L294.500 1.500L294.500 -1.500L303.500 -1.500L303.500 1.500L312.500 1.500L312.500 -1.500L321.500 -1.500L321.500 1.500L330.500 1.500L330.500 -1.500L339.500 -1.500L339.500 1.500L348.500 1.500L348.500 -1.500L357.500 -1.500L357.500 1.500L366.500 1.500L366.500 -1.500L375.500 -1.500L375.500 1.500L384.500 1.500L384.500 -1.500L393.500 -1.500L393.500 1.500L402.500 1.500L402.500 -1.500L411.500 -1.500L411.500 1.500L420.500 1.500L420.500 -1.500L429.500 -1.500L429.500 1.500L438.500 1.500L438.500 -1.500L447.500 -1.500L447.500 1.500L456.500 1.500L456.500 -1.500L465.500 -1.500L465.500 1.500L474.500 1.500L474.500 -1.500L483.500 -1.500L483.500 1.500L492.500 1.500L492.500 -1.500L501.500 -1.500L501.500 1.500L510.500 1.500L510.500 -1.500L519.500 -1.500L519.500 1.500L528.500 1.500L528.500 -1.500L537.500 -1.500L537.500 1.500L546.500 1.500L546.500 -1.500L555.500 -1.500L555.500 1.500L564.500 1.500L564.500 -1.500L573.500 -1.500L573.500 1.500L582.500 1.500L582.500 -1.500L591.500 -1.500L591.500 1.500L600.500 1.500L600.500 -1.500L609.500 -1.500L609.500 1.500L618.500 1.500L618.500 -1.500L627.500 -1.500L627.500 1.500L636.500 1.500L636.500 -1.500L645.500 -1.500L645.500 1.500L654.500 1.500L654.500 -1.500L663.500 -1.500L663.500 1.500L672.500 1.500L672.500 -1.500L681.500 -1.500L681.500 1.500L690.500 1.500L690.500 -1.500L699.500 -1.500L699.500 1.500L708.500 1.500L708.500 -1.500L717.500 -1.500L717.500 1.500L726.500 1.500L726.500 -1.500L735.500 -1.500L735.500 1.500L744.500 1.500L744.500 -1.500L753.500 -1.500L753.500 1.500L757.000 1.500L757.000 -1.500L757.000 -5.500L760.000 -5.500L760.000 -14.500L757.000 -14.500L757.000 -23.500L760.000 -23.500L760.000 -32.500L757.000 -32.500L757.000 -36.500L3.000 -36.500L3.000 -32.500L0.000 -32.500L0.000 -23.500L3.000 -23.500L3.000 -14.500L0.000 -14.500L0.000 -5.500L3.000 -5.500L3.000 -1.500L3.000 1.500L6.500 1.500L6.500 -1.500L15.500 -1.500Z" fill="none" stroke="#ff0000" stroke-width="0.100"></path>
<path d="M778.500 -1.500L778.500 1.500L787.500 1.500L787.500 -1.500L796.500 -1.500L796.500 1.500L805.500 1.500L805.500 -1.500L814.500 -1.500L814.500 1.500L823.500 1.500L823.500 -1.500L832.500 -1.500L832.500 1.500L841.500 1.500L841.500 -1.500L850.500 -1.500L850.500 1.500L859.500 1.500L859.500 -1.500L868.500 -1.500L868.500 1.500L877.500 1.500L877.500 -1.500L886.500 -1.500L886.500 1.500L895.500 1.500L895.500 -1.500L904.500 -1.500L904.500 1.500L913.500 1.500L913.500 -1.500L922.500 -1.500L922.500 1.500L931.500 1.500L931.500 -1.500L940.500 -1.500L940.500 1.500L949.500 1.500L949.500 -1.500L958.500 -1.500L958.500 1.500L967.500 1.500L967.500 -1.500L976.500 -1.500L976.500 1.500L985.500 1.500L985.500 -1.500L994.500 -1.500L994.500 1.500L1003.500 1.500L1003.500 -1.500L1012.500 -1.500L1012.500 1.500L1021.500 1.500L1021.500 -1.500L1030.500 -1.500L1030.500 1.500L1039.500 1.500L1039.500 -1.500L1048.500 -1.500L1048.500 1.500L1057.500 1.500L1057.500 -1.500L1066.500 -1.500L1066.500 1.500L1075.500 1.500L1075.500 -1.500L1084.500 -1.500L1084.500 1.500L1093.500 1.500L1093.500 -1.500L1102.500 -1.500L1102.500 1.500L1111.500 1.500L1111.500 -1.500L1120.500 -1.500L1120.500 1.500L1129.500 1.500L1129.500 -1.500L1138.500 -1.500L1138.500 1.500L1147.500 1.500L1147.500 -1.500L1156.500 -1.500L1156.500 1.500L1165.500 1.500L1165.500 -1.500L1174.500 -1.500L1174.500 1.500L1183.500 1.500L1183.500 -1.500L1192.500 -1.500L1192.500 1.500L1201.500 1.500L1201.500 -1.500L1210.500 -1.500L1210.500 1.500L1219.500 1.500L1219.500 -1.500L1228.500 -1.500L1228.500 1.500L1237.500 1.500L1237.500 -1.500L1246.500 -1.500L1246.500 1.500L1255.500 1.500L1255.500 -1.500L1264.500 -1.500L1264.500 1.500L1273.500 1.500L1273.500 -1.500L1282.500 -1.500L1282.500 1.500L1291.500 1.500L1291.500 -1.500L1300.500 -1.500L1300.500 1.500L1309.500 1.500L1309.500 -1.500L1318.500 -1.500L1318.500 1.500L1327.500 1.500L1327.500 -1.500L1336.500 -1.500L1336.500 1.500L1345.500 1.500L1345.500 -1.500L1354.500 -1.500L1354.500 1.500L1363.500 1.500L1363.500 -1.500L1372.500 -1.500L1372.500 1.500L1381.500 1.500L1381.500 -1.500L1390.500 -1.500L1390.500 1.500L1399.500 1.500L1399.500 -1.500L1408.500 -1.500L1408.500 1.500L1417.500 1.500L1417.500 -1.500L1426.500 -1.500L1426.500 1.500L1435.500 1.500L1435.500 -1.500L1444.500 -1.500L1444.500 1.500L1453.500 1.500L1453.500 -1.500L1462.500 -1.500L1462.500 1.500L1471.500 1.500L1471.500 -1.500L1480.500 -1.500L1480.500 1.500L1489.500 1.500L1489.500 -1.500L1498.500 -1.500L1498.500 1.500L1507.500 1.500L1507.500 -1.500L1516.500 -1.500L1516.500 1.500L1520.000 1.500L1520.000 -1.500L1520.000 -5.500L1523.000 -5.500L1523.000 -14.500L1520.000 -14.500L1520.000 -23.500L1523.000 -23.500L1523.000 -32.500L1520.000 -32.500L1520.000 -36.500L766.000 -36.500L766.000 -32.500L763.000 -32.500L763.000 -23.500L766.000 -23.500L766.000 -14.500L763.000 -14.500L763.000 -5.500L766.000 -5.500L766.000 -1.500L766.000 1.500L769.500 1.500L769.500 -1.500L778.500 -1.500Z" fill="none" stroke="#ff0000" stroke-width="0.100"></path>
<path d="M20.500 -42.500L20.500 -39.500L29.500 -39.500L29.500 -42.500L38.500 -42.500L38.500 -39.500L47.500 -39.500L47.500 -42.500L56.500 -42.500L56.500 -39.500L65.500 -39.500L65.500 -42.500L74.500 -42.500L74.500 -39.500L83.500 -39.500L83.500 -42.500L92.500 -42.500L92.500 -39.500L101.500 -39.500L101.500 -42.500L110.500 -42.500L110.500 -39.500L119.500 -39.500L119.500 -42.500L128.500 -42.500L128.500 -39.500L137.500 -39.500L137.500 -42.500L146.500 -42.500L146.500 -39.500L155.500 -39.500L155.500 -42.500L164.500 -42.500L164.500 -39.500L173.500 -39.500L173.500 -42.500L182.500 -42.500L182.500 -39.500L191.500 -39.500L191.500 -42.500L200.500 -42.500L200.500 -39.500L209.500 -39.500L209.500 -42.500L218.500 -42.500L218.500 -39.500L227.500 -39.500L227.500 -42.500L236.500 -42.500L236.500 -39.500L245.500 -39.500L245.500 -42.500L254.500 -42.500L254.500 -39.500L263.500 -39.500L263.500 -42.500L272.500 -42.500L272.500 -39.500L281.500 -39.500L281.500 -42.500L290.500 -42.500L290.500 -39.500L299.500 -39.500L299.500 -42.500L308.500 -42.500L308.500 -39.500L317.500 -39.500L317.500 -42.500L326.500 -42.500L326.500 -39.500L335.500 -39.500L335.500 -42.500L344.500 -42.500L344.500 -39.500L353.500 -39.500L353.500 -42.500L362.500 -42.500L362.500 -39.500L371.500 -39.500L371.500 -42.500L380.500 -42.500L380.500 -39.500L389.500 -39.500L389.500 -42.500L398.500 -42.500L398.500 -39.500L407.000 -39.500L410.000 -39.500L410.000 -42.500L410.000 -46.500L407.000 -46.500L407.000 -55.500L410.000 -55.500L410.000 -64.500L407.000 -64.500L407.000 -73.500L410.000 -73.500L410.000 -77.500L407.000 -77.500L3.000 -77.500L0.000 -77.500L0.000 -73.500L3.000 -73.500L3.000 -64.500L0.000 -64.500L0.000 -55.500L3.000 -55.500L3.000 -46.500L0.000 -46.500L0.000 -42.500L0.000 -39.500L3.000 -39.500L11.500 -39.500L11.500 -42.500L20.500 -42.500Z" fill="none" stroke="#ff0000" stroke-width="0.100"></path>
<path d="M433.500 -42.500L433.500 -39.500L442.500 -39.500L442.500 -42.500L451.500 -42.500L451.500 -39.500L460.500 -39.500L460.500 -42.500L469.500 -42.500L469.500 -39.500L478.500 -39.500L478.500 -42.500L487.500 -42.500L487.500 -39.500L496.500 -39.500L496.500 -42.500L505.500 -42.500L505.500 -39.500L514.500 -39.500L514.500 -42.500L523.500 -42.500L523.500 -39.500L532.500 -39.500L532.500 -42.500L541.500 -42.500L541.500 -39.500L550.500 -39.500L550.500 -42.500L559.500 -42.500L559.500 -39.500L568.500 -39.500L568.500 -42.500L577.500 -42.500L577.500 -39.500L586.500 -39.500L586.500 -42.500L595.500 -42.500L595.500 -39.500L604.500 -39.500L604.500 -42.500L613.500 -42.500L613.500 -39.500L622.500 -39.500L622.500 -42.500L631.500 -42.500L631.500 -39.500L640.500 -39.500L640.500 -42.500L649.500 -42.500L649.500 -39.500L658.500 -39.500L658.500 -42.500L667.500 -42.500L667.500 -39.500L676.500 -39.500L676.500 -42.500L685.500 -42.500L685.500 -39.500L694.500 -39.500L694.500 -42.500L703.500 -42.500L703.500 -39.500L712.500 -39.500L712.500 -42.500L721.500 -42.500L721.500 -39.500L730.500 -39.500L730.500 -42.500L739.500 -42.500L739.500 -39.500L748.500 -39.500L748.500 -42.500L757.500 -42.500L757.500 -39.500L766.500 -39.500L766.500 -42.500L775.500 -42.500L775.500 -39.500L784.500 -39.500L784.500 -42.500L793.500 -42.500L793.500 -39.500L802.500 -39.500L802.500 -42.500L811.500 -42.500L811.500 -39.500L820.000 -39.500L823.000 -39.500L823.000 -42.500L823.000 -46.500L820.000 -46.500L820.000 -55.500L823.000 -55.500L823.000 -64.500L820.000 -64.500L820.000 -73.500L823.000 -73.500L823.000 -77.500L820.000 -77.500L416.000 -77.500L413.000 -77.500L413.000 -73.500L416.000 -73.500L416.000 -64.500L413.000 -64.500L413.000 -55.500L416.000 -55.500L416.000 -46.500L413.000 -46.500L413.000 -42.500L413.000 -39.500L416.000 -39.500L424.500 -39.500L424.500 -42.500L433.500 -42.500Z" fill="none" stroke="#ff0000" stroke-width="0.100"></path>
<path d="M24.500 -85.000L24.500 -82.000L33.500 -82.000L33.500 -85.000L42.500 -85.000L42.500 -82.000L51.500 -82.000L51.500 -85.000L60.500 -85.000L60.500 -82.000L69.500 -82.000L69.500 -85.000L78.500 -85.000L78.500 -82.000L87.500 -82.000L87.500 -85.000L96.500 -85.000L96.500 -82.000L105.500 -82.000L105.500 -85.000L114.500 -85.000L114.500 -82.000L123.500 -82.000L123.500 -85.000L132.500 -85.000L132.500 -82.000L141.500 -82.000L141.500 -85.000L150.500 -85.000L150.500 -82.000L159.500 -82.000L159.500 -85.000L168.500 -85.000L168.500 -82.000L177.500 -82.000L177.500 -85.000L186.500 -85.000L186.500 -82.000L195.500 -82.000L195.500 -85.000L204.500 -85.000L204.500 -82.000L213.500 -82.000L213.500 -85.000L222.500 -85.000L222.500 -82.000L231.500 -82.000L231.500 -85.000L240.500 -85.000L240.500 -82.000L249.500 -82.000L249.500 -85.000L258.500 -85.000L258.500 -82.000L267.500 -82.000L267.500 -85.000L276.500 -85.000L276.500 -82.000L285.500 -82.000L285.500 -85.000L294.500 -85.000L294.500 -82.000L303.500 -82.000L303.500 -85.000L312.500 -85.000L312.500 -82.000L321.500 -82.000L321.500 -85.000L330.500 -85.000L330.500 -82.000L339.500 -82.000L339.500 -85.000L348.500 -85.000L348.500 -82.000L357.500 -82.000L357.500 -85.000L366.500 -85.000L366.500 -82.000L375.500 -82.000L375.500 -85.000L384.500 -85.000L384.500 -82.000L393.500 -82.000L393.500 -85.000L402.500 -85.000L402.500 -82.000L411.500 -82.000L411.500 -85.000L420.500 -85.000L420.500 -82.000L429.500 -82.000L429.500 -85.000L438.500 -85.000L438.500 -82.000L447.500 -82.000L447.500 -85.000L456.500 -85.000L456.500 -82.000L465.500 -82.000L465.500 -85.000L474.500 -85.000L474.500 -82.000L483.500 -82.000L483.500 -85.000L492.500 -85.000L492.500 -82.000L501.500 -82.000L501.500 -85.000L510.500 -85.000L510.500 -82.000L519.500 -82.000L519.500 -85.000L528.500 -85.000L528.500 -82.000L537.500 -82.000L537.500 -85.000L546.500 -85.000L546.500 -82.000L555.500 -82.000L555.500 -85.000L564.500 -85.000L564.500 -82.000L573.500 -82.000L573.500 -85.000L582.500 -85.000L582.500 -82.000L591.500 -82.000L591.500 -85.000L600.500 -85.000L600.500 -82.000L609.500 -82.000L609.500 -85.000L618.500 -85.000L618.500 -82.000L627.500 -82.000L627.500 -85.000L636.500 -85.000L636.500 -82.000L645.500 -82.000L645.500 -85.000L654.500 -85.000L654.500 -82.000L663.500 -82.000L663.500 -85.000L672.500 -85.000L672.500 -82.000L681.500 -82.000L681.500 -85.000L690.500 -85.000L690.500 -82.000L699.500 -82.000L699.500 -85.000L708.500 -85.000L708.500 -82.000L717.500 -82.000L717.500 -85.000L726.500 -85.000L726.500 -82.000L735.500 -82.000L735.500 -85.000L744.500 -85.000L744.500 -82.000L753.500 -82.000L753.500 -85.000L757.000 -85.000L757.000 -93.500L760.000 -93.500L760.000 -102.500L757.000 -102.500L757.000 -111.500L760.000 -111.500L760.000 -120.500L757.000 -120.500L757.000 -129.500L760.000 -129.500L760.000 -138.500L757.000 -138.500L757.000 -147.500L760.000 -147.500L760.000 -156.500L757.000 -156.500L757.000 -165.500L760.000 -165.500L760.000 -174.500L757.000 -174.500L757.000 -183.500L760.000 -183.500L760.000 -192.500L757.000 -192.500L757.000 -201.500L760.000 -201.500L760.000 -210.500L757.000 -210.500L757.000 -219.500L760.000 -219.500L760.000 -228.500L757.000 -228.500L757.000 -237.500L760.000 -237.500L760.000 -246.500L757.000 -246.500L757.000 -255.500L760.000 -255.500L760.000 -264.500L757.000 -264.500L757.000 -273.500L760.000 -273.500L760.000 -282.500L757.000 -282.500L757.000 -291.500L760.000 -291.500L760.000 -300.500L757.000 -300.500L757.000 -309.500L760.000 -309.500L760.000 -318.500L757.000 -318.500L757.000 -327.500L760.000 -327.500L760.000 -336.500L757.000 -336.500L757.000 -345.500L760.000 -345.500L760.000 -354.500L757.000 -354.500L757.000 -363.500L760.000 -363.500L760.000 -372.500L757.000 -372.500L757.000 -381.500L760.000 -381.500L760.000 -390.500L757.000 -390.500L757.000 -399.500L760.000 -399.500L760.000 -408.500L757.000 -408.500L757.000 -417.500L760.000 -417.500L760.000 -426.500L757.000 -426.500L757.000 -435.500L760.000 -435.500L760.000 -444.500L757.000 -444.500L757.000 -453.500L760.000 -453.500L760.000 -462.500L757.000 -462.500L757.000 -471.500L760.000 -471.500L760.000 -480.500L757.000 -480.500L757.000 -489.000L753.500 -489.000L753.500 -492.000L744.500 -492.000L744.500 -489.000L735.500 -489.000L735.500 -492.000L726.500 -492.000L726.500 -489.000L717.500 -489.000L717.500 -492.000L708.500 -492.000L708.500 -489.000L699.500 -489.000L699.500 -492.000L690.500 -492.000L690.500 -489.000L681.500 -489.000L681.500 -492.000L672.500 -492.000L672.500 -489.000L663.500 -489.000L663.500 -492.000L654.500 -492.000L654.500 -489.000L645.500 -489.000L645.500 -492.000L636.500 -492.000L636.500 -489.000L627.500 -489.000L627.500 -492.000L618.500 -492.000L618.500 -489.000L609.500 -489.000L609.500 -492.000L600.500 -492.000L600.500 -489.000L591.500 -489.000L591.500 -492.000L582.500 -492.000L582.500 -489.000L573.500 -489.000L573.500 -492.000L564.500 -492.000L564.500 -489.000L555.500 -489.000L555.500 -492.000L546.500 -492.000L546.500 -489.000L537.500 -489.000L537.500 -492.000L528.500 -492.000L528.500 -489.000L519.500 -489.000L519.500 -492.000L510.500 -492.000L510.500 -489.000L501.500 -489.000L501.500 -492.000L492.500 -492.000L492.500 -489.000L483.500 -489.000L483.500 -492.000L474.500 -492.000L474.500 -489.000L465.500 -489.000L465.500 -492.000L456.500 -492.000L456.500 -489.000L447.500 -489.000L447.500 -492.000L438.500 -492.000L438.500 -489.000L429.500 -489.000L429.500 -492.000L420.500 -492.000L420.500 -489.000L411.500 -489.000L411.500 -492.000L402.500 -492.000L402.500 -489.000L393.500 -489.000L393.500 -492.000L384.500 -492.000L384.500 -489.000L375.500 -489.000L375.500 -492.000L366.500 -492.000L366.500 -489.000L357.500 -489.000L357.500 -492.000L348.500 -492.000L348.500 -489.000L339.500 -489.000L339.500 -492.000L330.500 -492.000L330.500 -489.000L321.500 -489.000L321.500 -492.000L312.500 -492.000L312.500 -489.000L303.500 -489.000L303.500 -492.000L294.500 -492.000L294.500 -489.000L285.500 -489.000L285.500 -492.000L276.500 -492.000L276.500 -489.000L267.500 -489.000L267.500 -492.000L258.500 -492.000L258.500 -489.000L249.500 -489.000L249.500 -492.000L240.500 -492.000L240.500 -489.000L231.500 -489.000L231.500 -492.000L222.500 -492.000L222.500 -489.000L213.500 -489.000L213.500 -492.000L204.500 -492.000L204.500 -489.000L195.500 -489.000L195.500 -492.000L186.500 -492.000L186.500 -489.000L177.500 -489.000L177.500 -492.000L168.500 -492.000L168.500 -489.000L159.500 -489.000L159.500 -492.000L150.500 -492.000L150.500 -489.000L141.500 -489.000L141.500 -492.000L132.500 -492.000L132.500 -489.000L123.500 -489.000L123.500 -492.000L114.500 -492.000L114.500 -489.000L105.500 -489.000L105.500 -492.000L96.500 -492.000L96.500 -489.000L87.500 -489.000L87.500 -492.000L78.500 -492.000L78.500 -489.000L69.500 -489.000L69.500 -492.000L60.500 -492.000L60.500 -489.000L51.500 -489.000L51.500 -492.000L42.500 -492.000L42.500 -489.000L33.500 -489.000L33.500 -492.000L24.500 -492.000L24.500 -489.000L15.500 -489.000L15.500 -492.000L6.500 -492.000L6.500 -489.000L3.000 -489.000L3.000 -480.500L0.000 -480.500L0.000 -471.500L3.000 -471.500L3.000 -462.500L0.000 -462.500L0.000 -453.500L3.000 -453.500L3.000 -444.500L0.000 -444.500L0.000 -435.500L3.000 -435.500L3.000 -426.500L0.000 -426.500L0.000 -417.500L3.000 -417.500L3.000 -408.500L0.000 -408.500L0.000 -399.500L3.000 -399.500L3.000 -390.500L0.000 -390.500L0.000 -381.500L3.000 -381.500L3.000 -372.500L0.000 -372.500L0.000 -363.500L3.000 -363.500L3.000 -354.500L0.000 -354.500L0.000 -345.500L3.000 -345.500L3.000 -336.500L0.000 -336.500L0.000 -327.500L3.000 -327.500L3.000 -318.500L0.000 -318.500L0.000 -309.500L3.000 -309.500L3.000 -300.500L0.000 -300.500L0.000 -291.500L3.000 -291.500L3.000 -282.500L0.000 -282.500L0.000 -273.500L3.000 -273.500L3.000 -264.500L0.000 -264.500L0.000 -255.500L3.000 -255.500L3.000 -246.500L0.000 -246.500L0.000 -237.500L3.000 -237.500L3.000 -228.500L0.000 -228.500L0.000 -219.500L3.000 -219.500L3.000 -210.500L0.000 -210.500L0.000 -201.500L3.000 -201.500L3.000 -192.500L0.000 -192.500L0.000 -183.500L3.000 -183.500L3.000 -174.500L0.000 -174.500L0.000 -165.500L3.000 -165.500L3.000 -156.500L0.000 -156.500L0.000 -147.500L3.000 -147.500L3.000 -138.500L0.000 -138.500L0.000 -129.500L3.000 -129.500L3.000 -120.500L0.000 -120.500L0.000 -111.500L3.000 -111.500L3.000 -102.500L0.000 -102.500L0.000 -93.500L3.000 -93.500L3.000 -85.000L6.500 -85.000L6.500 -82.000L15.500 -82.000L15.500 -85.000L24.500 -85.000Z" fill="none" stroke="#ff0000" stroke-width="0.100"></path></svg>